<svg xmlns="http://www.w3.org/2000/svg">
        <symbol id="cat1" viewBox="0 0 500 500"><title>Black cat sitting looking at you</title><path d="M185.99,58.28c11.13-1.84,22.18-3.23,33.33-3.34,9.33-.1,18.67.08,27.99.46,2.65.11,4.35-.5,6.13-2.41,9.01-9.73,19.38-17.87,30.26-25.39,3.25-2.25,6.67-4.12,10.71-4.59,4.35-.51,8.17,1.58,9.65,5.7.64,1.78.95,3.75,1.03,5.65.23,5.18-.63,10.27-1.72,15.31-1.58,7.29-3.26,14.56-4.96,21.82-.29,1.21-.21,2.18.45,3.27,4.53,7.53,7.99,15.58,10.86,23.84,8.47,24.36,16.7,48.8,25.12,73.18,2.14,6.2,4.5,12.33,7.03,18.38,1.36,3.25,3.18,6.32,4.98,9.37,5.04,8.54,9.61,17.33,13.84,26.3,3.24,6.86,6.66,13.64,9.86,20.52,1.35,2.91,2.45,5.95,3.5,8.98,1.66,4.82,2.02,9.81,1.62,14.87-.15,1.86-.24,3.73-.48,5.58-.13.96.17,1.54.87,2.15,3.2,2.8,6.46,5.53,9.5,8.49,14.16,13.76,22.96,30.35,26.18,49.87,1.82,11,1.87,22.03.91,33.1-.8,9.25-2.95,18.14-6.45,26.72-4.61,11.31-12.16,20.35-21.52,28.03-9.33,7.65-19.94,12.9-31.21,16.96-7.76,2.79-15.66,5.08-23.81,6.39-12.89,2.07-25.41,1-37.37-4.52-5.35-2.47-9.63-6.16-12.25-11.55-2.69-5.53-2.76-11.14-.47-16.82,2.2-5.44,5.89-9.78,10.13-13.7,5.96-5.52,12.76-9.74,20.13-13.11,5.33-2.44,10.52-5.16,15.21-8.72,9.45-7.18,16.43-16.23,20.49-27.45.41-1.12.64-2.31,1.08-3.93-21.31,12.64-43.63,21.49-67.42,27.15,0,.7-.03,1.39,0,2.07.23,5.36-.05,10.68-1.48,15.89-.68,2.5-1.64,4.88-3.05,7.06-2.43,3.75-5.71,6.26-10.29,6.72-2.98.3-5.74-.53-8.32-1.96-3.51-1.93-6.24-4.73-8.65-7.87-3.19-4.17-5.57-8.79-7.51-13.66-.31-.77-.61-1.54-.9-2.25h-17.6c-.35.68-.67,1.3-.99,1.91-3.03,5.93-6.9,11.16-12.56,14.87-2.79,1.82-5.8,3.09-9.15,3.34-6.2.48-11.01-2.06-14.58-7.03-2.81-3.92-4.06-8.43-4.53-13.17-.16-1.66-.19-3.34-.29-5.19-.48-.16-1-.37-1.54-.51-13.7-3.58-26.8-8.62-39.08-15.72-8.45-4.89-16.27-10.61-23.35-17.34-.93-.88-1.95-1.68-2.96-2.48-8.58-6.83-15.67-14.88-20.36-24.88-1.88-4.02-3.75-8.05-5.46-12.14-.68-1.64-1.01-3.45-1.33-5.21-.41-2.27-.67-4.57-.95-6.86-.07-.57-.02-1.16.03-1.73.75-8.22,2.33-16.27,4.48-24.24,1.47-5.46,2.42-11.06,3.95-16.5,1.28-4.57,3.1-8.99,4.61-13.5,1.36-4.09,2.6-8.21,3.9-12.32,5.17-16.31,10.44-32.58,15.48-48.93,2.5-8.11,4.43-16.39,6.86-24.52,5.6-18.8,10.41-37.83,16.59-56.45.45-1.34.85-2.71,1.42-4,1.35-3.01,1.73-6.16,1.66-9.41-.12-5.66-.34-11.33-.27-16.99.12-9.39.41-18.78.7-28.17.05-1.6.32-3.21.68-4.77,1.44-6.26,7.79-9.56,13.78-7.24,1.95.75,3.63,1.92,5.17,3.31,2.55,2.31,4.69,4.97,6.46,7.9,3.57,5.89,7.07,11.81,10.57,17.74,1.61,2.72,3.44,5.27,5.66,7.7ZM187.28,115.94c-2.36.09-4.5.44-6.47,1.51-3.62,1.95-5.36,5.61-4.31,9.57.39,1.46,1.02,2.97,1.94,4.15,4.4,5.61,10.23,8.05,17.31,7.08,4.22-.58,7.31-3.41,8.01-7.07.59-3.12-.44-5.87-2.36-8.27-3.64-4.56-8.53-6.65-14.13-6.96ZM263.66,136.09c5.4-.27,9.86-2.29,12.56-7.21,2.64-4.8.93-10.27-3.89-12.87-6.42-3.48-15.74-.43-18.86,6.17-2.2,4.67-.6,9.74,3.88,12.3,1.95,1.11,4.04,1.62,6.29,1.61Z"/><path d="M192.96,134.76c1.47-.39,3.02-.6,4.39-1.22,2.22-1,3.1-3.14,2.31-5.46-.38-1.13-.97-2.28-1.75-3.17-2.96-3.37-6.79-4.97-11.27-4.95-.83,0-1.67.14-2.47.36-3.69,1.06-5.03,4.16-3.18,7.51.61,1.1,1.46,2.14,2.4,2.98,2.68,2.4,5.88,3.6,9.56,3.95Z"/><path d="M192.96,134.76c-3.68-.34-6.88-1.54-9.56-3.95-.94-.84-1.79-1.88-2.4-2.98-1.85-3.35-.51-6.45,3.18-7.51.79-.23,1.64-.36,2.47-.36,4.48-.02,8.3,1.57,11.27,4.95.78.89,1.36,2.04,1.75,3.17.78,2.32-.09,4.46-2.31,5.46-1.37.62-2.92.83-4.39,1.22Z"/><path d="M266.75,118.45c.95.28,2.51.51,3.85,1.19,2.66,1.34,3.53,4.2,2.36,6.92-2.05,4.78-9.21,7.09-13.7,4.42-2.66-1.58-3.55-4.35-2.12-7.15,1.86-3.64,5.13-5.03,9.61-5.39Z"/>
        </symbol>
        <symbol id="cat2" viewBox="0 0 500 500"><title>Black cat laying down looking at you</title><path class="cls-1" d="M295.1,179.9c.12-.08.21-.11.25-.17,2.6-3.34,5.85-5.98,9.22-8.47.89-.66,1.15-1.35,1.1-2.44-.14-3-.19-6.01-.15-9.02.08-5.75-.53-11.44-1.3-17.12-1.14-8.45-2.34-16.9-3.46-25.35-.22-1.69-.26-3.4-.33-5.1-.13-2.86,1.27-4.78,3.79-5.96,2.84-1.33,5.73-1.3,8.65-.28,3.19,1.11,5.97,2.95,8.63,4.95,5.37,4.04,9.82,8.99,13.93,14.26,4.92,6.29,9.07,13.08,12.79,20.13.94,1.78.94,1.8,2.92,1.48,4.74-.76,9.49-1.31,14.29-1.51,8.71-.35,17.28.58,25.7,2.83,1.84.49,3.67.99,5.57,1.5.21-.37.41-.71.62-1.06,2.28-3.75,4.39-7.61,6.88-11.21,4.47-6.45,10.02-11.94,16.11-16.87,4.55-3.69,9.33-7.05,14.46-9.91,1.82-1.02,3.69-1.85,5.84-1.9,3.86-.1,6.72,1.56,8.71,4.8,1.06,1.72,1.68,3.62,2,5.59.47,2.92.91,5.86,1.22,8.81,1.15,11.09,1.46,22.22,1.6,33.35.12,9.1-.17,18.2-1.11,27.27-.22,2.14-.55,4.27-.86,6.4-.1.66-.06,1.27.18,1.9,3.05,7.92,4.97,16.14,6.24,24.51.61,3.97,1.22,7.95,1.09,12-.27,8.7-1.96,17.07-5.47,25.07-4.77,10.87-10.11,21.45-16.11,31.7-4.72,8.07-9.49,16.1-14.84,23.77-2.58,3.7-5.21,7.36-7.83,11.03-3.46,4.85-7.62,8.96-12.78,12.02-3.74,2.22-7.79,3.66-11.99,4.65-3.32.78-6.68,1.37-10.03,2.02-.8.16-1.56.36-2.28.79-5.76,3.45-12.02,5.66-18.5,7.32-7.03,1.8-14.15,2.89-21.39,3.37-11.29.75-22.58.55-33.88.21-7.72-.23-15.42-.69-23.14-.95-7.88-.27-15.76-.45-23.64-.61-4.84-.1-9.67.22-14.48.74-4.84.53-9.69,1.09-14.51,1.75-6.68.92-13.26,2.39-19.85,3.79-6.87,1.46-13.78,2.77-20.77,3.49-6.64.68-13.3.77-19.97.4-5.44-.3-10.86-.76-16.24-1.6-9.8-1.54-19.47-3.66-29.01-6.37-7.42-2.11-14.81-4.34-21.95-7.26-8.03-3.29-15.73-7.2-22.72-12.4-1.11-.82-2.21-1.66-3.26-2.56-3.22-2.75-6.72-5.12-10.08-7.68-12.42-9.46-20.64-21.89-25.69-36.54-2.54-7.37-3.98-14.98-4.7-22.73-.59-6.37-.66-12.75-.16-19.12,1.25-15.63,6.39-29.78,16.23-42.11,6.51-8.15,14.71-13.8,24.87-16.43,3.84-1,7.75-1.43,11.71-.91.68.09,1.05-.17,1.44-.64,3.14-3.74,6.59-7.19,10.24-10.43,9.8-8.69,21.03-14.75,33.6-18.37,5.95-1.71,12-2.85,18.12-3.7,10.01-1.4,20.06-1.95,30.15-1.61,6.46.22,12.9.67,19.33,1.35,6.79.72,13.53,1.77,20.24,3.01,16.28,3.01,32.19,7.42,47.86,12.73,8.61,2.92,17.17,5.99,25.75,9,.38.13.76.26,1.1.38ZM335.62,187.42c-2.71-.05-5.27.5-7.63,1.8-3.09,1.7-5.11,4.22-5.73,7.74-.45,2.57.07,5.01,1.27,7.3,1.35,2.58,3.29,4.64,5.73,6.19,5,3.18,10.37,4.35,16.16,2.64,3.16-.93,5.7-2.78,7.2-5.79,1.95-3.93,1.43-7.79-.9-11.33-3.78-5.75-9.39-8.22-16.08-8.56ZM396.95,214.63c3.71,0,7.13-1.01,10.26-2.98,2.89-1.82,5.14-4.21,6.43-7.42,2.03-5.08.28-10.39-4.39-13.22-2.27-1.38-4.77-2.02-7.42-2.07-2.93-.06-5.73.56-8.38,1.8-3.76,1.75-6.75,4.33-8.49,8.19-2.42,5.37-.45,11.18,4.73,13.98,2.27,1.22,4.7,1.77,7.26,1.74Z"/><path class="cls-2" d="M402.64,193.06c-3.55.15-7.09,1.5-10.2,3.99-1.38,1.1-2.54,2.39-3.36,3.96-2.26,4.35-.28,8.44,4.53,9.36.2.04.4.06.6.08,5.99.42,10.84-1.81,14.65-6.38.84-1.01,1.41-2.19,1.68-3.48.5-2.44-.14-4.49-2.2-6.02-1.57-1.17-3.39-1.48-5.72-1.51Z"/><path class="cls-1" d="M336.06,190.84c3.77.22,7.27,1.63,10.11,4.52,1.31,1.33,2.25,2.88,2.6,4.74.52,2.81-.43,5.03-2.73,6.68-1.65,1.18-3.55,1.62-5.53,1.6-4.17-.03-7.78-1.49-10.72-4.47-1.25-1.26-2.15-2.74-2.55-4.5-.65-2.84.44-5.49,2.89-7.05,1.74-1.11,3.68-1.46,5.94-1.51Z"/><path class="cls-1" d="M402.64,193.06c2.33.02,4.14.34,5.72,1.51,2.05,1.52,2.7,3.57,2.2,6.02-.26,1.29-.84,2.47-1.68,3.48-3.81,4.57-8.66,6.8-14.65,6.38-.2-.01-.4-.04-.6-.08-4.81-.93-6.8-5.02-4.53-9.36.82-1.57,1.98-2.86,3.36-3.96,3.11-2.48,6.64-3.83,10.2-3.99Z"/>
        </symbol>
        <symbol id="cat3" viewBox="0 0 500 500"><title>Black cat half way through getting up</title><path class="cls-1" d="M290.06,117.13c11.55-2.01,22.6-5.19,34.21-5.21.69-1.35,1.38-2.67,2.04-3.99,5.62-11.26,12.93-21.35,21.46-30.56,2.02-2.18,4.41-4.02,6.69-5.94.67-.56,1.52-.96,2.34-1.3,2.3-.94,4.66-.35,6.12,1.67.86,1.2,1.57,2.55,2.13,3.91,1.9,4.63,2.99,9.49,3.54,14.45.66,6.04.93,12.11.9,18.18-.02,4.39-.49,8.74-1.31,13.05-.22,1.14.04,1.94.77,2.82,8.36,10.1,17.51,19.45,26.88,28.6,2.64,2.57,5.26,5.16,7.86,7.77.6.61,1.23.94,2.09.93,3.43-.04,6.87-.01,10.3-.08,8.76-.17,17.51-.43,26.27-.55,5.29-.07,9.23,2.48,12.03,6.82,1.07,1.66,1.83,3.53,2.67,5.33.7,1.48,1.29,3.02,1.97,4.51.81,1.76,1.08,3.58.9,5.52-.35,3.74-1.24,7.35-2.49,10.88-2.18,6.14-4.4,12.26-7.44,18.05-5.02,9.55-10.94,18.49-17.91,26.73-1.77,2.09-3.46,4.25-5.22,6.34-.59.7-.79,1.34-.64,2.29.4,2.65.7,5.32.92,8,.26,3.1-.64,5.95-2.5,8.4-1.8,2.38-3.68,4.71-5.74,6.86-6.9,7.24-13.86,14.44-21.56,20.86-1.41,1.18-2.68,2.51-4.14,3.89.72,1.71,1.43,3.39,2.15,5.07.8,1.87,1.74,3.7,2.38,5.63.65,1.97,1.19,4.01,1.46,6.07.79,6-1.64,10.56-6.62,13.83-2.2,1.44-4.66,2.31-7.28,2.47-9.25.57-18.09-1.08-26.16-5.72-5.81-3.34-9.99-8.18-11.5-14.93-.31-1.4-.42-2.85-.62-4.28-.07-.48-.13-.96-.2-1.52-13.96-.85-27.85-1.7-41.83-2.55-.04.62-.09,1.06-.09,1.49.07,9.52-.6,19-1.24,28.48-.56,8.35-.83,16.69-.57,25.07.21,6.76.15,13.54.17,20.31.01,4.48-.85,8.8-2.45,12.98-2.26,5.92-6.39,10.12-12.03,12.86-1.97.96-4.06,1.3-6.25.84-.33-.07-.7-.07-1.03,0-3.86.73-7.06-.64-9.85-3.16-2.55-2.3-4.5-5.07-5.69-8.3-.7-1.91-1.26-3.88-1.7-5.87-.47-2.12-.25-4.26.33-6.35,1.2-4.31,2.44-8.61,3.57-12.94,1.32-5.07,2.21-10.21,1.92-15.49-.28-5.14-1.27-10.16-2.5-15.14-1.57-6.32-3.23-12.62-4.71-18.97-1.59-6.78-2.84-13.64-3.4-20.59-.07-.92-.38-1.43-1.26-1.73-1.36-.46-2.67-1.08-4.04-1.53-1.03-.34-2.11-.67-3.19-.73-5.32-.28-10.64-.39-15.87,1.02-2.93.79-5.87,1.51-8.82,2.25-2.42.6-4.89.83-7.39.87-4.99.07-9.95-.19-14.84-1.26-4-.87-7.82-2.29-11.63-3.75-.55-.21-1.1-.39-1.9-.68.21,1.28.39,2.34.57,3.41.8,4.76,1.53,9.53,1.37,14.39-.1,3-.49,5.95-1.49,8.79-3.09,8.86-11.47,10.68-18.11,7.48-3.96-1.91-7.06-4.78-9.4-8.49-.28-.45-.58-.88-.98-1.49-.38,1.1-.67,1.98-1,2.85-2.11,5.55-7.05,8.72-12.98,8.24-2.96-.24-5.35-1.75-7.4-3.82-2.26-2.28-3.59-5.12-4.72-8.06-1.78-4.66-2.98-9.49-4.09-14.33-1.51-6.59-3.04-13.18-4.44-19.8-.54-2.52-.7-5.12-1.12-7.68-.38-2.35-.96-4.68-1.31-7.04-.73-5.03-1.2-10.07-.9-15.17.19-3.23,1.1-6.25,2.39-9.19,2.2-4.99,5.11-9.57,8.13-14.07,4.05-6.03,8.24-11.97,12.37-17.94.16-.24.3-.5.52-.87-1.82-.28-3.54-.54-5.25-.8-7.3-1.1-14.42-2.96-21.39-5.33-9.18-3.13-18.32-6.34-27.49-9.49-3.9-1.34-7.79-2.73-11.76-3.87-3.58-1.02-7.23-1.82-10.89-2.53-2.19-.43-4.2.54-6.13,1.48-.57.28-.45.83-.42,1.31.15,2.53.33,5.07.47,7.6.23,4.08.37,8.15-.14,12.22-.44,3.47-1.55,6.68-3.73,9.46-.49.62-1.03,1.23-1.65,1.72-2.26,1.78-4.84,2.93-7.66,3.51-2.3.48-4.45-.06-6.42-1.29-1.93-1.2-3.48-2.81-4.77-4.67-3.58-5.17-5.81-10.9-6.47-17.14-.98-9.3.11-18.46,3.44-27.16,4.03-10.51,11.85-16.9,22.89-19.38,5.85-1.32,11.53-.81,17.25.73,7.16,1.94,14.2,4.23,21.17,6.73,13.49,4.84,27.19,8.99,41.07,12.53,6.94,1.77,13.88,3.5,20.84,5.17,1.88.45,3.83.6,5.74.93.62.11,1.01-.07,1.41-.54,9.05-10.61,20.22-18.36,32.84-24.06,4.75-2.14,9.73-3.77,14.6-5.64,1.44-.55,2.89-1.06,4.31-1.66,8.35-3.53,16.93-6.36,25.7-8.66,2.74-.72,5.52-1.27,8.23-2.09,5.35-1.63,8.61-5.17,9.18-10.84.23-2.27.3-4.57.17-6.85-.2-3.52-.62-7.04-.94-10.55-.06-.69-.14-1.39-.11-2.09.21-5.89-.6-11.72-1.03-17.57-.16-2.13-.21-4.27-.28-6.41-.02-.59.03-1.19.08-1.79.21-2.36,1.25-4.21,3.49-5.15,2.29-.96,4.49-.67,6.48.84,1.37,1.04,2.41,2.4,3.16,3.92,1.29,2.63,2.56,5.29,3.67,8,3.43,8.32,6.78,16.68,10.18,25.02.73,1.79,1.55,3.54,2.28,5.2ZM325.59,162.81c0,3.31,1,6.03,3.71,7.87,2.46,1.67,5.19,1.84,8.01,1.12,6.44-1.64,11.79-7.72,12.44-14.35.66-6.7-4.35-10.99-10.5-9.97-3.74.62-6.78,2.51-9.28,5.28-2.61,2.89-4.24,6.23-4.38,10.05ZM301.93,169.46c-.12-.83-.18-1.68-.38-2.5-1.56-6.49-8.32-11.32-15-10.75-6.95.59-11.06,6.78-8.9,13.36,2.12,6.45,9.42,10.78,16.09,9.53,4.84-.9,8.15-4.82,8.2-9.65Z"/><path class="cls-2" d="M287.74,158.5c-.25,0-.5,0-.74,0-5.59.2-8.94,4.92-7.28,10.25,1.65,5.3,7.7,9.09,13.2,8.26,4.88-.74,7.65-4.89,6.45-9.69-1.22-4.89-6.35-8.79-11.63-8.83Z"/><path class="cls-1" d="M334.53,169.93c-3.7,0-6.17-2.11-6.61-5.68-.13-1.02-.1-2.11.13-3.1,1.38-5.74,4.92-9.51,10.56-11.27.56-.17,1.17-.23,1.76-.26,4.28-.25,7.03,2.26,7.18,6.52.21,6.26-6.02,13.25-12.26,13.75-.3.02-.6.03-.77.04Z"/><path class="cls-1" d="M287.74,158.5c5.28.04,10.41,3.93,11.63,8.83,1.19,4.8-1.57,8.95-6.45,9.69-5.5.83-11.55-2.95-13.2-8.26-1.66-5.34,1.68-10.05,7.28-10.25.25,0,.5,0,.74,0Z"/>
        </symbol>
        <symbol id="cat4" viewBox="0 0 500 500"><title>Black cat laying on the ground like a shrimp</title><path class="cls-1" d="M69.17,262.63c.22-.16.39-.28.55-.4.39-.32.77-.66,1.16-.98,4.4-3.7,9.41-4.03,14.69-2.54,2.3.65,3.95,2.22,5.28,4.14.36.52.68,1.06,1.11,1.73.43-.41.82-.77,1.19-1.14,11.08-10.94,22.76-21.18,35.23-30.51,8.31-6.21,17.14-11.59,26.31-16.41,4.78-2.51,9.53-5.11,14.39-7.47,6.53-3.17,13.14-6.17,19.75-9.18,3.37-1.53,6.99-2.22,10.66-2.63,1.04-.12,2.08-.23,3.3-.37-.27-.49-.47-.89-.7-1.27-3.47-5.72-7.42-11.09-11.58-16.32-6.7-8.4-13.9-16.35-21.56-23.89-3.68-3.62-7.85-6.68-11.87-9.89-4.57-3.65-9.62-6.57-14.52-9.73-3-1.93-5.68-4.24-8.19-6.76-.71-.71-1.3-1.56-1.88-2.39-1.19-1.71-.94-3.51.04-5.14,1.04-1.73,2.31-3.33,3.52-4.96,2.46-3.3,5.94-4.88,9.84-5.74,2.08-.46,4.17-.62,6.29-.29,2.17.33,4.36.52,6.52.91,3.48.63,6.68,2.06,9.83,3.62,7.01,3.48,13.34,7.97,19.3,12.98,4.17,3.5,8.25,7.12,12.34,10.73.88.78,1.68,1.67,2.4,2.6,7.74,10.02,14.42,20.73,20.42,31.86.31.58.63,1.17.99,1.82,1.9-3.71,3.73-7.29,5.56-10.88-.08-.05-.18-.13-.29-.18-6.35-2.58-10.64-7.33-13.79-13.22-2.8-5.24-4.37-10.87-5.13-16.74-1.18-9.13-.34-18.11,2.03-26.99.41-1.55.25-3.26.33-4.9,0-.22-.15-.48-.29-.68-2.77-4.22-4.91-8.76-6.89-13.38-2.3-5.36-4.53-10.74-7.37-15.84-.86-1.55-1.73-3.1-2.56-4.66-.69-1.31-1.23-2.69-1.32-4.2-.13-2.24.81-3.75,2.93-4.48,2.02-.7,4.12-.9,6.25-.7,5.85.55,11.44,2.16,16.86,4.35,4.56,1.84,8.85,4.19,12.75,7.21.61.47,1.06.26,1.6,0,4.84-2.32,9.66-4.66,14.52-6.92,6.32-2.93,12.74-5.62,19.44-7.59.5-.15.88-.34,1.05-.93,1.24-4.27,3.46-8.06,5.95-11.7,4.41-6.44,9.37-12.4,15.27-17.55,1.53-1.34,3.2-2.48,5.08-3.29,3.9-1.68,7.28-.93,10.05,2.27,2.22,2.57,3.42,5.61,3.93,8.93.69,4.51,1.2,9.04,1.29,13.61.09,4.7.85,9.33,1.64,13.95.2,1.16.46,2.32.6,3.49.1.8.43,1.42.94,2.01,7.86,9.07,15.69,18.16,23.54,27.24,11.1,12.85,22.21,25.71,33.32,38.55,1.16,1.34,2.36,2.65,3.6,3.92,5.11,5.25,9.86,10.8,14.2,16.69,8.54,11.58,15.51,24.06,20.76,37.47,4.88,12.48,8.28,25.36,10.12,38.63,1.57,11.29,1.99,22.63,1.38,34.01-.73,13.51-2.98,26.76-6.66,39.77-4.78,16.93-11.72,32.93-20.92,47.92-22.5,36.65-53.51,63.66-92.73,81.23-14.55,6.52-29.71,11.13-45.4,13.96-14.23,2.57-28.57,3.58-43.02,2.92-19.48-.9-38.36-4.65-56.56-11.67-30.87-11.9-56.22-31.05-75.89-57.73-6.58-8.92-12.61-18.19-18.13-27.78-3.42-5.94-6.27-12.16-8.92-18.47-1.62-3.85-3.12-7.75-4.53-11.69-.55-1.53-.9-3.2-.96-4.82-.16-4.09-.12-8.19-.11-12.29,0-2.96.12-5.91.11-8.87-.02-4.98-1.08-9.81-2.18-14.63-.88-3.87-1.79-7.73-2.54-11.63-.78-4.06-.53-8.07,1.03-11.95,1.13-2.81,2.86-5.17,5.25-7.02,2.35-1.81,4.99-2.6,7.96-2.08,1.85.33,3.37,1.3,4.73,2.55,1.41,1.3,2.55,2.84,3.44,4.52,1.18,2.24,2.25,4.54,3.36,6.81.17.34.32.68.51,1.08ZM238.22,108.51c-2.57.37-4.69,1.38-6.47,3-2.1,1.9-2.09,4.73-.07,6.71.33.32.7.62,1.08.87,2.35,1.52,4.91,2.4,7.73,2.43.31,0,.62-.05,1.04-.09-2.48-4-3.84-8.16-3.32-12.92ZM282.95,95.04c-2.13,2.22-3.6,4.53-3.83,7.45-.25,3.21,2.09,5.72,5.32,5.81,1.79.05,3.4-.52,4.94-1.36.23-.12.41-.34.59-.49-3.82-2.87-6.16-6.54-7.01-11.41ZM286.41,92.36c3.84,2.93,5.64,6.93,6.77,11.33.04,0,.1.03.11.01,2.03-2.05,3.33-4.45,3.28-7.41-.05-2.69-1.71-4.59-4.37-5.13-2.07-.42-3.91.24-5.8,1.2ZM243.56,108.6c2.07,3.84,3.25,7.64,2.9,11.8,1.12-.26,2.13-.87,2.99-1.79,2.01-2.16,2.05-4.85.09-7.05-1.53-1.71-3.53-2.49-5.98-2.96Z"/>
        </symbol>
        <symbol id="cat5" viewBox="0 0 500 500"><title>Black cat that looks like a roast chicken silhouette</title><path class="cls-1" d="M196.4,222.86c-.84-3.42-1.63-6.25-2.23-9.11-.72-3.48-1.58-6.97-1.84-10.5-.38-5.32-.29-10.67-.4-16.01-.13-6.37.46-12.72,1.84-18.9,1.72-7.69,3.76-15.33,6.11-22.85,4.87-15.58,9.46-31.23,13.43-47.06,1.81-7.2,3.42-14.44,6.25-21.35,1.53-3.73,2.59-7.63,2.97-11.66.43-4.51,2.01-8.93,1.18-13.55-.05-.28.13-.59.21-.89,1.14-4.57,2.3-9.14,3.41-13.72.36-1.5.67-3.03.84-4.56.24-2.29.12-4.59-1.84-6.17-1.99-1.6-4.19-2.9-6.71-3.57-.74-.2-1.43-.57-2.17-.75-1.1-.27-2.24-.69-3.34-.63-3.37.19-6.36,1.58-8.74,3.87-2.21,2.13-4.19,4.55-6,7.03-1.96,2.68-3.41,5.74-5.46,8.33-1.38,1.74-2.12,3.51-2.37,5.64-.49,4.15-.84,8.33-1.63,12.42-1.98,10.25-3.99,20.5-6.34,30.67-2.21,9.56-4.63,19.09-7.4,28.51-5,16.99-10.38,33.86-15.46,50.83-.99,3.32-2.37,6.31-4.44,9.08-6.25,8.37-12.43,16.79-18.6,25.22-5.06,6.92-9.11,14.37-11.5,22.64-1.35,4.67-2.66,9.37-3.73,14.12-2.71,12.07-5.28,24.18-7.85,36.28-.35,1.65-1.01,3.01-2.12,4.27-5.55,6.35-11.02,12.78-16.56,19.13-5.29,6.06-9.64,12.74-12.56,20.21-2.31,5.88-4.03,11.99-5.96,18.02-.42,1.32-.62,2.71-.98,4.06-.75,2.75-1.48,5.52-2.34,8.24-1.65,5.26-3.14,10.53-2.73,16.14.07.9-.15,1.84-.34,2.74-.9,4.24-1.91,8.45-2.73,12.7-.63,3.26-1.21,6.55-.82,9.91.49,4.21,1.35,4.81,5.59,4.14,2.51-.4,5.08-.93,7.59-.78,8.26.52,16.54.99,24.73,2.09,14.34,1.92,28.63,4.16,43.04,5.45,3.4.3,6.71.97,9.92,2.23,3.88,1.53,7.85,2.85,11.74,4.36,21.56,8.38,43.27,16.21,65.69,22.07,12.41,3.24,24.68,7.02,37.14,10.11,10.44,2.59,20.88,5.05,31.65,5.9,14.87,1.16,29.69.58,44.49-.92,3.77-.38,7.52-.89,11.29-1.22,8.06-.7,15.9-2.35,23.52-5.05,2.46-.87,4.65-2.25,6.2-4.33,1.88-2.51,3.99-4.93,4.68-8.24.62-.08,1.22-.18,1.82-.23,4.08-.36,8.19-.54,12.24-1.13,3.58-.52,7.15-1.3,10.63-2.31,3.62-1.05,5.92-3.61,6.57-7.4.35-2.05.57-4.15.59-6.22.03-3.54-1.67-6.04-5-7.34-.86-.34-1.74-.64-2.64-.87-5.7-1.43-11.49-1.46-17.3-1.08-1.52.1-3.05.16-4.79.25.12-1.07.18-1.89.31-2.71,1.63-10.23,3.59-20.4,4.71-30.72,1.2-11,.42-21.61-4.36-31.75-2.29-4.86-4.78-9.55-8.85-13.21-.63-.56-1.16-1.25-1.68-1.92-.76-.98-.87-2.09-.65-3.3.22-1.2.43-2.43.44-3.64.04-10.77-.66-21.5-1.6-32.22-.47-5.39-.94-10.79-1.75-16.13-1.17-7.75-2.22-9.56-7.96-14.88-4.76-4.42-9.56-8.81-14.48-13.06-2.13-1.84-4.69-2.88-7.69-2.41-2.44.38-4.92.55-7.38.8-2.69.27-5.39.5-8.08.78-2.7.28-5.02-.39-6.94-2.42-1.65-1.74-3.35-3.44-5.13-5.04-2-1.81-3.99-3.67-6.2-5.21-7.12-4.94-14.45-9.55-22.29-13.3-3.69-1.76-7.39-3.51-11.09-5.24-.48-.23-1.02-.35-1.55-.45-6.55-1.18-13.11-1.12-19.59.35-4.44,1.01-8.81,2.34-13.19,3.6-1.43.41-2.78.66-4.3.32-3.09-.69-6.24-1.14-9.35-1.74-9.23-1.77-18.01-.19-26.48,3.55-5.1,2.25-9.32,5.76-13.21,9.69-.52.53-1.06,1.04-2.05,2.01Z"/>
        </symbol>
</svg>